<svg viewBox="0 0 640 400" data-background-color="#ffffff" preserveAspectRatio="xMidYMid meet" height="400" width="640" xmlns="http://www.w3.org/2000/svg" xmlns:xlink="http://www.w3.org/1999/xlink"><rect width="640" height="400" x="0" y="0" opacity="1" fill="#ffffff" data-fill-palette-color="background" id="background"></rect><g id="tight-bounds" transform="matrix(1,0,0,1,122.24000000000001,76.4)"><svg viewBox="0 0 395.52 247.2" height="247.2" width="395.52"><g><svg></svg></g><g><svg viewBox="0 0 395.52 247.2" height="247.2" width="395.52"><g><path d="M159.849 40.259c0 9.608-2.402 17.378-7.206 23.31-4.804 5.974-10.653 8.961-17.545 8.961-2.924 0-5.264-0.522-7.019-1.566-1.796-1.044-3.53-2.715-5.201-5.013 4.177-2.506 7.624-6.329 10.34-11.468 2.715-5.097 4.073-10.465 4.073-16.104 0-2.924-0.418-5.848-1.253-8.773-0.836-2.924-2.235-5.473-4.199-7.644-2.005-2.214-4.679-4.01-8.021-5.389-3.342-1.337-7.519-2.005-12.532-2.006-11.488 0-20.72 2.757-27.697 8.272-7.018 5.556-10.527 13.66-10.527 24.313 0 7.937 1.734 14.726 5.201 20.365 1.455 2.396 3.073 4.736 4.853 7.019l-40.666 0c-1.524-4.72-2.286-9.775-2.286-15.165 0-8.146 1.88-15.666 5.64-22.558 3.76-6.893 8.877-12.804 15.352-17.734 6.475-4.888 14.057-8.752 22.746-11.592 8.647-2.799 17.984-4.198 28.01-4.199 3.551 0 8.042 0.355 13.473 1.065 5.431 0.752 10.715 2.381 15.853 4.888 5.097 2.506 9.483 6.224 13.16 11.154 3.634 4.888 5.452 11.509 5.451 19.864zM137.291 201.427c-4.177 9.525-9.859 17.42-17.044 23.686-7.227 6.266-15.582 10.966-25.065 14.099-9.525 3.133-19.509 4.7-29.953 4.7-8.146 0-16.021-0.94-23.624-2.82-7.645-1.88-14.496-4.971-20.553-9.274-6.057-4.261-10.903-9.734-14.538-16.418-3.676-6.684-5.514-14.726-5.514-24.125 0-6.877 0.916-13.081 2.748-18.611h33.675c-1.057 1.288-2.023 2.687-2.899 4.199-2.298 3.969-3.446 8.773-3.446 14.412 0 5.013 0.898 9.504 2.694 13.473 1.755 3.969 4.094 7.248 7.019 9.838 2.924 2.632 6.329 4.679 10.214 6.141 3.843 1.462 7.854 2.193 12.031 2.193 5.013 0 9.984-0.898 14.913-2.695 4.888-1.755 9.274-4.512 13.16-8.271 3.843-3.76 7.018-8.459 9.524-14.099 2.506-5.64 3.76-12.219 3.76-19.739 0-1.855-0.067-3.672-0.2-5.452h39.271c-0.446 10.845-2.504 20.432-6.173 28.763zM370.395 3.915h24.125l-16.05 70.621-23.558 0zM341.257 238.272h-40.104l-15.337-65.608 34.445 0 6.584 29.891 6.553-29.891 22.77 0zM261.676 69.397l-1.183 5.139-23.964 0 11.988-52.762c-15.248 4.386-27.404 12.261-36.47 23.623-6.275 7.858-10.388 17.571-12.34 29.139l-23.271 0c1.089-6.057 3.142-12.156 6.16-18.298 4.679-9.608 10.987-18.339 18.924-26.193 7.937-7.812 17.19-14.224 27.759-19.237 10.527-5.013 21.744-7.519 33.65-7.52 3.551 0 7.102 0.313 10.653 0.94 3.551 0.627 6.997 1.775 10.339 3.447l14.727 66.861-35.771 0zM222.825 238.272h-23.498l14.906-65.608 23.686 0z" fill="#111111" data-fill-palette-color="tertiary"></path></g><g transform="matrix(1,0,0,1,0,85.62035721144613)"><svg viewBox="0 0 395.52 75.95928557710772" height="75.95928557710772" width="395.52"><g><svg viewBox="0 0 395.52 75.95928557710772" height="75.95928557710772" width="395.52"><g><svg viewBox="0 0 395.52 75.95928557710772" height="75.95928557710772" width="395.52"><g><svg viewBox="0 0 395.52 75.95928557710772" height="75.95928557710772" width="395.52"><g><svg viewBox="0 0 395.52 75.95928557710772" height="75.95928557710772" width="395.52"><g><svg viewBox="0 0 395.52 75.95928557710772" height="75.95928557710772" width="395.52"><g transform="matrix(1,0,0,1,0,0)"><svg width="395.52" viewBox="-0.05000000447034836 -37.5 260.3199768066406 50" height="75.95928557710772" data-palette-color="#111111"><path d="M25.3-31.6L25.3-31.6Q25.3-29.3 24.15-27.88 23-26.45 21.35-26.45L21.35-26.45Q20.65-26.45 20.23-26.7 19.8-26.95 19.4-27.5L19.4-27.5Q20.4-28.1 21.05-29.33 21.7-30.55 21.7-31.9L21.7-31.9Q21.7-32.6 21.5-33.3 21.3-34 20.83-34.52 20.35-35.05 19.55-35.38 18.75-35.7 17.55-35.7L17.55-35.7Q14.8-35.7 13.13-34.38 11.45-33.05 11.45-30.5L11.45-30.5Q11.45-28.6 12.28-27.25 13.1-25.9 14.35-24.7 15.6-23.5 17.07-22.3 18.55-21.1 19.8-19.58 21.05-18.05 21.88-16.05 22.7-14.05 22.7-11.2L22.7-11.2Q22.7-8.15 21.7-5.88 20.7-3.6 18.98-2.1 17.25-0.6 14.98 0.15 12.7 0.9 10.2 0.9L10.2 0.9Q8.25 0.9 6.43 0.45 4.6 0 3.15-1.03 1.7-2.05 0.83-3.65-0.05-5.25-0.05-7.5L-0.05-7.5Q-0.05-9.55 0.63-11.1 1.3-12.65 2.35-13.68 3.4-14.7 4.65-15.23 5.9-15.75 7.05-15.75L7.05-15.75Q8.35-15.75 9.38-15 10.4-14.25 10.7-12.45L10.7-12.45Q9.65-12.45 8.6-12.18 7.55-11.9 6.7-11.33 5.85-10.75 5.3-9.8 4.75-8.85 4.75-7.5L4.75-7.5Q4.75-6.3 5.18-5.35 5.6-4.4 6.3-3.78 7-3.15 7.93-2.8 8.85-2.45 9.85-2.45L9.85-2.45Q11.05-2.45 12.23-2.88 13.4-3.3 14.33-4.2 15.25-5.1 15.85-6.45 16.45-7.8 16.45-9.6L16.45-9.6Q16.45-11.75 15.7-13.48 14.95-15.2 13.8-16.68 12.65-18.15 11.33-19.53 10-20.9 8.85-22.28 7.7-23.65 6.95-25.18 6.2-26.7 6.2-28.55L6.2-28.55Q6.2-30.5 7.1-32.15 8-33.8 9.55-34.98 11.1-36.15 13.18-36.83 15.25-37.5 17.65-37.5L17.65-37.5Q18.5-37.5 19.8-37.33 21.1-37.15 22.33-36.55 23.55-35.95 24.43-34.77 25.3-33.6 25.3-31.6ZM38.3-25.25L38.3-25.25Q41.3-25.25 42.6-23.23 43.9-21.2 43.95-17.35L43.95-17.35Q48.4-17.35 52.15-20.35L52.15-20.35 52.6-19Q51.2-17.4 48.87-16.32 46.55-15.25 43.85-14.9L43.85-14.9Q43.6-11.65 42.75-8.88 41.9-6.1 40.5-4.05 39.1-2 37.2-0.85 35.3 0.3 33 0.3L33 0.3Q31.35 0.3 29.92-0.13 28.5-0.55 27.45-1.5 26.4-2.45 25.8-3.95 25.2-5.45 25.2-7.6L25.2-7.6Q25.2-9.05 25.45-10.9 25.7-12.75 26.3-14.73 26.9-16.7 27.87-18.57 28.85-20.45 30.32-21.95 31.8-23.45 33.75-24.35 35.7-25.25 38.3-25.25ZM34.9-3.5L34.9-3.5Q36-3.5 37.07-4.28 38.15-5.05 39.02-6.5 39.9-7.95 40.52-10.03 41.15-12.1 41.4-14.75L41.4-14.75Q40.15-14.75 39.77-15.33 39.4-15.9 39.4-16.8L39.4-16.8Q39.4-18.1 40-18.68 40.6-19.25 41.55-19.35L41.55-19.35Q41.35-21.1 40.57-21.8 39.8-22.5 38.55-22.5L38.55-22.5Q37.3-22.5 36.22-21.8 35.15-21.1 34.27-19.98 33.4-18.85 32.72-17.38 32.05-15.9 31.6-14.35 31.15-12.8 30.92-11.28 30.7-9.75 30.7-8.5L30.7-8.5Q30.7-5.9 31.62-4.7 32.55-3.5 34.9-3.5ZM49.95-25L55-25 51.35-8Q51.15-7.2 51.15-6.35L51.15-6.35Q51.15-4.9 51.8-4.2 52.45-3.5 53.4-3.5L53.4-3.5Q54.85-3.5 56.37-4.93 57.9-6.35 58.45-8.95L58.45-8.95 61.85-25 66.84-25 63.25-8Q63.05-7.2 63.05-6.35L63.05-6.35Q63.05-5.1 63.55-4.3 64.05-3.5 65.2-3.5L65.2-3.5Q66.59-3.5 67.77-4.45 68.95-5.4 69.87-6.95 70.8-8.5 71.5-10.43 72.2-12.35 72.67-14.33 73.15-16.3 73.37-18.13 73.59-19.95 73.59-21.25L73.59-21.25Q73.25-20.95 72.7-20.9 72.15-20.85 71.84-20.85L71.84-20.85Q71.15-20.85 70.75-21.5 70.34-22.15 70.34-23L70.34-23Q70.34-24 71-24.95 71.65-25.9 72.9-25.9L72.9-25.9Q74.5-25.9 75.27-24.8 76.05-23.7 76.05-21.65L76.05-21.65Q76.05-19.45 75.65-16.98 75.25-14.5 74.5-12.05 73.75-9.6 72.67-7.38 71.59-5.15 70.3-3.45 69-1.75 67.42-0.73 65.84 0.3 64.15 0.3L64.15 0.3Q61.7 0.3 60.12-0.75 58.55-1.8 58.15-3.95L58.15-3.95Q56.7-1.7 55.02-0.7 53.35 0.3 51.75 0.3L51.75 0.3Q50.6 0.3 49.6-0.18 48.6-0.65 47.85-1.5 47.1-2.35 46.67-3.6 46.25-4.85 46.25-6.4L46.25-6.4Q46.25-7.6 46.55-8.95L46.55-8.95 49.95-25ZM81.09-25L86.14-25 85.24-20.9Q85.94-21.7 86.69-22.48 87.44-23.25 88.27-23.88 89.09-24.5 89.99-24.88 90.89-25.25 91.94-25.25L91.94-25.25Q93.44-25.25 94.09-24.58 94.74-23.9 94.74-22.9L94.74-22.9Q94.74-21.95 94.42-21.33 94.09-20.7 93.64-20.33 93.19-19.95 92.69-19.8 92.19-19.65 91.84-19.65L91.84-19.65Q91.39-19.65 91.17-19.85 90.94-20.05 90.72-20.28 90.49-20.5 90.19-20.7 89.89-20.9 89.34-20.9L89.34-20.9Q88.24-20.9 87.02-20.13 85.79-19.35 84.74-18.45L84.74-18.45 80.79 0 75.79 0 81.09-25ZM112.09-20.1L112.09-20.1Q112.09-15.85 108.77-13.23 105.44-10.6 99.59-10L99.59-10Q99.54-9.6 99.54-9.22 99.54-8.85 99.54-8.45L99.54-8.45Q99.54-5.9 100.52-4.7 101.49-3.5 103.89-3.5L103.89-3.5Q106.29-3.5 108.64-4.75 110.99-6 112.94-8.95L112.94-8.95 114.54-8.95Q113.54-7.1 112.14-5.43 110.74-3.75 109.04-2.48 107.34-1.2 105.42-0.45 103.49 0.3 101.49 0.3L101.49 0.3Q100.04 0.3 98.72-0.15 97.39-0.6 96.37-1.55 95.34-2.5 94.72-4.03 94.09-5.55 94.09-7.7L94.09-7.7Q94.09-9.1 94.39-10.95 94.69-12.8 95.32-14.75 95.94-16.7 96.97-18.6 97.99-20.5 99.39-21.98 100.79-23.45 102.62-24.35 104.44-25.25 106.74-25.25L106.74-25.25Q107.79-25.25 108.74-25.03 109.69-24.8 110.44-24.23 111.19-23.65 111.64-22.65 112.09-21.65 112.09-20.1ZM107.19-22.8L107.19-22.8Q105.79-22.8 104.59-21.83 103.39-20.85 102.47-19.3 101.54-17.75 100.87-15.83 100.19-13.9 99.84-11.95L99.84-11.95Q104.04-12.6 106.54-14.9 109.04-17.2 109.04-20.6L109.04-20.6Q109.04-21.45 108.72-22.13 108.39-22.8 107.19-22.8ZM116.29-25L121.34-25 120.44-20.9Q121.14-21.7 121.89-22.48 122.64-23.25 123.46-23.88 124.29-24.5 125.19-24.88 126.09-25.25 127.14-25.25L127.14-25.25Q128.64-25.25 129.29-24.58 129.94-23.9 129.94-22.9L129.94-22.9Q129.94-21.95 129.61-21.33 129.29-20.7 128.84-20.33 128.39-19.95 127.89-19.8 127.39-19.65 127.04-19.65L127.04-19.65Q126.59-19.65 126.36-19.85 126.14-20.05 125.91-20.28 125.69-20.5 125.39-20.7 125.09-20.9 124.54-20.9L124.54-20.9Q123.44-20.9 122.21-20.13 120.99-19.35 119.94-18.45L119.94-18.45 115.99 0 110.99 0 116.29-25ZM146.54-25L151.59-25 147.94-8Q147.69-7 147.69-5.75L147.69-5.75Q147.69-4.9 147.99-4.2 148.29-3.5 149.24-3.5L149.24-3.5Q150.44-3.5 151.66-4.95 152.89-6.4 153.99-8.95L153.99-8.95 155.84-8.95Q154.64-5.8 153.44-3.98 152.24-2.15 151.11-1.2 149.99-0.25 148.96 0.03 147.94 0.3 147.14 0.3L147.14 0.3Q145.49 0.3 144.41-0.85 143.34-2 143.14-4.6L143.14-4.6Q141.99-2.55 139.96-1.13 137.94 0.3 135.54 0.3L135.54 0.3Q134.34 0.3 133.19-0.13 132.04-0.55 131.14-1.53 130.24-2.5 129.69-4.03 129.14-5.55 129.14-7.75L129.14-7.75Q129.14-9.45 129.51-11.4 129.89-13.35 130.59-15.3 131.29-17.25 132.39-19.05 133.49-20.85 134.89-22.23 136.29-23.6 138.06-24.43 139.84-25.25 141.94-25.25L141.94-25.25Q143.14-25.25 144.39-24.7 145.64-24.15 146.04-22.6L146.04-22.6 146.54-25ZM137.64-3.5L137.64-3.5Q138.44-3.5 139.29-3.93 140.14-4.35 140.91-5.08 141.69-5.8 142.29-6.8 142.89-7.8 143.14-8.95L143.14-8.95 145.54-20.3Q145.39-21.15 144.79-21.83 144.19-22.5 143.04-22.5L143.04-22.5Q140.99-22.5 139.39-21 137.79-19.5 136.69-17.35 135.59-15.2 135.04-12.75 134.49-10.3 134.49-8.45L134.49-8.45Q134.49-5.6 135.34-4.55 136.19-3.5 137.64-3.5ZM157.38-25L162.38-25 157.28-1Q158.63-1.45 159.76-2.02 160.88-2.6 161.78-3.53 162.68-4.45 163.43-5.75 164.18-7.05 164.83-8.95L164.83-8.95 166.68-8.95Q165.78-6.3 164.81-4.63 163.83-2.95 162.63-1.88 161.43-0.8 160.01-0.2 158.58 0.4 156.88 0.8L156.88 0.8 156.23 4Q155.68 6.7 155.01 8.35 154.33 10 153.51 10.93 152.68 11.85 151.68 12.18 150.68 12.5 149.43 12.5L149.43 12.5Q147.13 12.5 145.53 11.48 143.93 10.45 143.93 8L143.93 8Q143.93 6.75 144.66 5.68 145.38 4.6 146.53 3.65 147.68 2.7 149.11 1.95 150.53 1.2 151.93 0.65L151.93 0.65 157.38-25ZM157.78-32.2L157.78-32.2Q157.78-33.55 158.73-34.55 159.68-35.55 161.08-35.55L161.08-35.55Q162.43-35.55 163.43-34.55 164.43-33.55 164.43-32.2L164.43-32.2Q164.43-30.8 163.43-29.85 162.43-28.9 161.08-28.9L161.08-28.9Q159.68-28.9 158.73-29.85 157.78-30.8 157.78-32.2ZM147.73 9.9L147.73 9.9Q149.13 9.9 149.88 8.3 150.63 6.7 151.18 4.1L151.18 4.1 151.53 2.5Q148.78 3.7 147.33 5.15 145.88 6.6 145.88 7.95L145.88 7.95Q145.88 8.8 146.36 9.35 146.83 9.9 147.73 9.9ZM181.63-25L186.68-25 183.03-8Q182.78-7 182.78-5.75L182.78-5.75Q182.78-4.9 183.08-4.2 183.38-3.5 184.33-3.5L184.33-3.5Q185.53-3.5 186.76-4.95 187.98-6.4 189.08-8.95L189.08-8.95 190.93-8.95Q189.73-5.8 188.53-3.98 187.33-2.15 186.21-1.2 185.08-0.25 184.06 0.03 183.03 0.3 182.23 0.3L182.23 0.3Q180.58 0.3 179.51-0.85 178.43-2 178.23-4.6L178.23-4.6Q177.08-2.55 175.06-1.13 173.03 0.3 170.63 0.3L170.63 0.3Q169.43 0.3 168.28-0.13 167.13-0.55 166.23-1.53 165.33-2.5 164.78-4.03 164.23-5.55 164.23-7.75L164.23-7.75Q164.23-9.45 164.61-11.4 164.98-13.35 165.68-15.3 166.38-17.25 167.48-19.05 168.58-20.85 169.98-22.23 171.38-23.6 173.16-24.43 174.93-25.25 177.03-25.25L177.03-25.25Q178.23-25.25 179.48-24.7 180.73-24.15 181.13-22.6L181.13-22.6 181.63-25ZM172.73-3.5L172.73-3.5Q173.53-3.5 174.38-3.93 175.23-4.35 176.01-5.08 176.78-5.8 177.38-6.8 177.98-7.8 178.23-8.95L178.23-8.95 180.63-20.3Q180.48-21.15 179.88-21.83 179.28-22.5 178.13-22.5L178.13-22.5Q176.08-22.5 174.48-21 172.88-19.5 171.78-17.35 170.68-15.2 170.13-12.75 169.58-10.3 169.58-8.45L169.58-8.45Q169.58-5.6 170.43-4.55 171.28-3.5 172.73-3.5ZM192.43-25L197.48-25 196.68-21.25Q197.63-22.55 198.58-23.35 199.53-24.15 200.4-24.58 201.28-25 202.05-25.13 202.83-25.25 203.48-25.25L203.48-25.25Q204.98-25.25 205.98-24.8 206.98-24.35 207.58-23.58 208.18-22.8 208.4-21.78 208.63-20.75 208.63-19.6L208.63-19.6Q208.63-17.95 208.25-16.15 207.88-14.35 207.43-12.6 206.98-10.85 206.6-9.15 206.23-7.45 206.23-5.95L206.23-5.95Q206.23-4.9 206.53-4.2 206.83-3.5 207.73-3.5L207.73-3.5Q210.08-3.5 212.43-8.95L212.43-8.95 214.28-8.95Q213.08-5.8 211.88-3.95 210.68-2.1 209.55-1.18 208.43-0.25 207.45 0.03 206.48 0.3 205.73 0.3L205.73 0.3Q203.13 0.3 202.03-1.33 200.93-2.95 200.93-5.35L200.93-5.35Q200.93-7 201.3-8.8 201.68-10.6 202.13-12.35 202.58-14.1 202.95-15.73 203.33-17.35 203.33-18.7L203.33-18.7Q203.33-19.95 202.88-20.7 202.43-21.45 201.13-21.45L201.13-21.45Q198.03-21.45 195.58-16.1L195.58-16.1 192.13 0 187.13 0 192.43-25ZM256.42-37.4L260.27-37.4 251.77 0 245.37 0 239.07-26.95 232.87 0 229.12 0 236.97-34.55Q233.32-33.5 231.15-30.78 228.97-28.05 228.97-23.45L228.97-23.45Q228.97-21.7 229.37-20.93 229.77-20.15 230.17-19.65L230.17-19.65Q227.77-19.65 226.55-20.73 225.32-21.8 225.32-24.5L225.32-24.5Q225.32-26.75 226.45-29.05 227.57-31.35 229.47-33.23 231.37-35.1 233.9-36.3 236.42-37.5 239.27-37.5L239.27-37.5Q240.12-37.5 240.97-37.35 241.82-37.2 242.62-36.8L242.62-36.8 249.47-5.7 256.42-37.4Z" opacity="1" transform="matrix(1,0,0,1,0,0)" fill="#111111" class="undefined-text-0" data-fill-palette-color="primary" id="text-0"></path></svg></g></svg></g></svg></g></svg></g></svg></g></svg></g></svg></g></svg></g></svg><rect width="395.52" height="247.2" fill="none" stroke="none" visibility="hidden"></rect></g><defs></defs></svg>